<svg width="96" height="96" viewBox="0 0 96 96" fill="none" xmlns="http://www.w3.org/2000/svg">
<path fill-rule="evenodd" clip-rule="evenodd" d="M94.08 49.0909C94.08 45.6873 93.7745 42.4145 93.2072 39.2727H48V57.84H73.8327C72.72 63.84 69.3382 68.9237 64.2545 72.3273V84.371H79.7672C88.8436 76.0146 94.08 63.7091 94.08 49.0909Z" fill="#4285F4"/>
<path fill-rule="evenodd" clip-rule="evenodd" d="M48 96C60.96 96 71.8255 91.7018 79.7673 84.3709L64.2545 72.3273C59.9564 75.2073 54.4582 76.9091 48 76.9091C35.4982 76.9091 24.9164 68.4655 21.1418 57.12H5.10545V69.5564C13.0036 85.2436 29.2364 96 48 96Z" fill="#34A853"/>
<path fill-rule="evenodd" clip-rule="evenodd" d="M21.1418 57.12C20.1818 54.24 19.6364 51.1637 19.6364 48C19.6364 44.8364 20.1818 41.76 21.1418 38.88V26.4437H5.10545C1.85455 32.9237 0 40.2546 0 48C0 55.7455 1.85455 63.0764 5.10545 69.5564L21.1418 57.12Z" fill="#FBBC05"/>
<path fill-rule="evenodd" clip-rule="evenodd" d="M48 19.0909C55.0473 19.0909 61.3745 21.5127 66.3491 26.2691L80.1163 12.5018C71.8036 4.75636 60.9382 0 48 0C29.2364 0 13.0036 10.7564 5.10545 26.4436L21.1418 38.88C24.9164 27.5345 35.4982 19.0909 48 19.0909Z" fill="#EA4335"/>
</svg>
