<svg width="512" height="512" viewBox="0 0 512 512" fill="none" xmlns="http://www.w3.org/2000/svg">
<path fill-rule="evenodd" clip-rule="evenodd" d="M83.8363 256C83.8363 160.917 160.917 83.8363 256 83.8363V0C114.615 0 0 114.615 0 256C0 397.385 114.615 512 256 512C397.385 512 512 397.385 512 256H428.164C428.164 351.083 351.083 428.164 256 428.164C160.917 428.164 83.8363 351.083 83.8363 256Z" fill="white"/>
<path d="M357.376 256C357.376 276.05 351.43 295.65 340.291 312.321C329.152 328.993 313.319 341.986 294.795 349.659C276.271 357.332 255.888 359.34 236.223 355.428C216.558 351.516 198.494 341.861 184.316 327.684C170.139 313.506 160.484 295.442 156.572 275.777C152.66 256.112 154.668 235.729 162.341 217.205C170.014 198.681 183.007 182.848 199.679 171.709C216.35 160.57 235.95 154.624 256 154.624L256 256L357.376 256Z" fill="white"/>
</svg>
